<svg id="Layer_2" data-name="Layer 2" xmlns="http://www.w3.org/2000/svg" viewBox="0 0 95 70"><title>logo_marta_small</title><circle cx="63.05" cy="20.45" r="2.08"/><circle cx="67.92" cy="15.63" r="2.08"/><path d="M81.76,33.57c-0.39,0-.77,0-1.15,0v0a30,30,0,0,0-8.43-14.95L72,18.46l-0.15.18C60.35,32.09,55.49,40,51,49.38a155.87,155.87,0,0,1,5.47-27.9l0-.15-4-3.51L52.32,18c-7.64,7.39-13.06,18.56-15,22.85L40.9,18.46l-5-2.69-0.12.16c-5.19,6.79-10.6,17.3-13.34,24.47l2.45-25.32,0-.16L21,12.8l-0.11.06A34.82,34.82,0,0,0,4.65,34.19l-0.05.19,2.66,1.16,0.08-.26a35.84,35.84,0,0,1,13.85-19L18,51.38,22,52.64l0.51-4.23c3.79-10.47,9.58-21.8,14.8-28.93l0.34,0.17L32.35,51.24l4.33,0.88,0.76-3.3c0.48-1.61,7.35-19,15.66-27.46l0.34,0.28c-5.72,17.49-5.9,29.4-5.82,32.64v0.19l4.13,0.8,0.08-.17c5.75-12.68,12-21.61,20.83-32.24a28.75,28.75,0,0,1,4.58,10.91C68.79,35.41,61,42.08,61,50.28c0,4.7,3,7.74,8,7.74,4.12,0,12.31-4.37,12.31-17.65a30.84,30.84,0,0,0-.36-4.7h0.6A24.73,24.73,0,0,1,90.47,37l0.47-1.78A27.67,27.67,0,0,0,81.76,33.57ZM68.7,54.35a4.34,4.34,0,0,1-4.26-4.57c0-5.63,5.76-12,13.16-13.48,0.09,0.92.13,1.84,0.13,2.73C77.73,48.19,74.17,54.35,68.7,54.35Z"/></svg>